solid Visualization Toolkit generated SLA File
 facet normal -1 0 0
  outer loop
   vertex 0.0099999997764825821 -0.090000003576278687 0.097499996423721313
   vertex 0.0099999997764825821 -0.090000003576278687 0.10249999910593033
   vertex 0.0099999997764825821 -5.9604643443122995e-10 0.097499996423721313
  endloop
 endfacet
 facet normal -1 0 0
  outer loop
   vertex 0.0099999997764825821 -5.9604643443122995e-10 0.10249999910593033
   vertex 0.0099999997764825821 -5.9604643443122995e-10 0.097499996423721313
   vertex 0.0099999997764825821 -0.090000003576278687 0.10249999910593033
  endloop
 endfacet
 facet normal 1 0 0
  outer loop
   vertex 0.014999999664723873 -0.090000003576278687 0.097499996423721313
   vertex 0.014999999664723873 -5.9604643443122995e-10 0.097499996423721313
   vertex 0.014999999664723873 -0.090000003576278687 0.10249999910593033
  endloop
 endfacet
 facet normal 1 -0 0
  outer loop
   vertex 0.014999999664723873 -5.9604643443122995e-10 0.10249999910593033
   vertex 0.014999999664723873 -0.090000003576278687 0.10249999910593033
   vertex 0.014999999664723873 -5.9604643443122995e-10 0.097499996423721313
  endloop
 endfacet
 facet normal 0 -1 0
  outer loop
   vertex 0.0099999997764825821 -0.090000003576278687 0.097499996423721313
   vertex 0.014999999664723873 -0.090000003576278687 0.097499996423721313
   vertex 0.0099999997764825821 -0.090000003576278687 0.10249999910593033
  endloop
 endfacet
 facet normal 0 -1 0
  outer loop
   vertex 0.014999999664723873 -0.090000003576278687 0.10249999910593033
   vertex 0.0099999997764825821 -0.090000003576278687 0.10249999910593033
   vertex 0.014999999664723873 -0.090000003576278687 0.097499996423721313
  endloop
 endfacet
 facet normal 0 1 0
  outer loop
   vertex 0.0099999997764825821 -5.9604643443122995e-10 0.097499996423721313
   vertex 0.0099999997764825821 -5.9604643443122995e-10 0.10249999910593033
   vertex 0.014999999664723873 -5.9604643443122995e-10 0.097499996423721313
  endloop
 endfacet
 facet normal 0 1 -0
  outer loop
   vertex 0.014999999664723873 -5.9604643443122995e-10 0.10249999910593033
   vertex 0.014999999664723873 -5.9604643443122995e-10 0.097499996423721313
   vertex 0.0099999997764825821 -5.9604643443122995e-10 0.10249999910593033
  endloop
 endfacet
 facet normal 0 0 -1
  outer loop
   vertex 0.0099999997764825821 -0.090000003576278687 0.097499996423721313
   vertex 0.0099999997764825821 -5.9604643443122995e-10 0.097499996423721313
   vertex 0.014999999664723873 -0.090000003576278687 0.097499996423721313
  endloop
 endfacet
 facet normal 0 0 -1
  outer loop
   vertex 0.014999999664723873 -5.9604643443122995e-10 0.097499996423721313
   vertex 0.014999999664723873 -0.090000003576278687 0.097499996423721313
   vertex 0.0099999997764825821 -5.9604643443122995e-10 0.097499996423721313
  endloop
 endfacet
 facet normal 0 0 1
  outer loop
   vertex 0.0099999997764825821 -0.090000003576278687 0.10249999910593033
   vertex 0.014999999664723873 -0.090000003576278687 0.10249999910593033
   vertex 0.0099999997764825821 -5.9604643443122995e-10 0.10249999910593033
  endloop
 endfacet
 facet normal -0 0 1
  outer loop
   vertex 0.014999999664723873 -5.9604643443122995e-10 0.10249999910593033
   vertex 0.0099999997764825821 -5.9604643443122995e-10 0.10249999910593033
   vertex 0.014999999664723873 -0.090000003576278687 0.10249999910593033
  endloop
 endfacet
endsolid
